HIERARCHY
ROOT Hips
{
	OFFSET 49.142799 -2.497189 53.325901
	CHANNELS 6 Xposition Yposition Zposition Xrotation Yrotation Zrotation
	JOINT spine
	{
		OFFSET 0.000000 -0.448575 7.800591
		CHANNELS 3 Xrotation Yrotation Zrotation
		JOINT spine1
		{
			OFFSET 0.000000 -0.000002 10.136402
			CHANNELS 3 Xrotation Yrotation Zrotation
			JOINT spine2
			{
				OFFSET 0.000000 -0.000001 9.712509
				CHANNELS 3 Xrotation Yrotation Zrotation
				JOINT Neck
				{
					OFFSET 0.000000 -1.188874 24.936096
					CHANNELS 3 Xrotation Yrotation Zrotation
					JOINT Head
					{
						OFFSET 0.000000 -0.000001 7.533844
						CHANNELS 3 Xrotation Yrotation Zrotation
						End Site
						{
							OFFSET 0.000000 6.014017 18.236099
						}
					}
				}
				JOINT RightShoulder
				{
					OFFSET -4.089649 0.569455 10.488800
					CHANNELS 3 Xrotation Yrotation Zrotation
					JOINT RightArm
					{
						OFFSET 0.000000 -0.000002 13.757004
						CHANNELS 3 Xrotation Yrotation Zrotation
						JOINT RightArmRoll
						{
							OFFSET 0.000000 -0.000001 6.944778
							CHANNELS 3 Xrotation Yrotation Zrotation
							JOINT RightForeArm
							{
								OFFSET 0.000000 -0.000003 20.227692
								CHANNELS 3 Xrotation Yrotation Zrotation
								JOINT RightForeArmRoll
								{
									OFFSET 0.000000 -0.000001 7.793121
									CHANNELS 3 Xrotation Yrotation Zrotation
									JOINT RightHand
									{
										OFFSET 0.000000 -0.000002 15.639099
										CHANNELS 3 Xrotation Yrotation Zrotation
										End Site
										{
											OFFSET 0.000000 -0.000000 0.100006
										}
									}
								}
							}
						}
					}
				}
				JOINT LeftShoulder
				{
					OFFSET 4.089649 0.569455 10.488800
					CHANNELS 3 Xrotation Yrotation Zrotation
					JOINT LeftArm
					{
						OFFSET 0.000000 -0.000002 13.757004
						CHANNELS 3 Xrotation Yrotation Zrotation
						JOINT LeftArmRoll
						{
							OFFSET 0.000000 -0.000001 6.944778
							CHANNELS 3 Xrotation Yrotation Zrotation
							JOINT LeftForeArm
							{
								OFFSET 0.000000 -0.000003 20.227692
								CHANNELS 3 Xrotation Yrotation Zrotation
								JOINT LeftForeArmRoll
								{
									OFFSET 0.000000 -0.000001 7.793121
									CHANNELS 3 Xrotation Yrotation Zrotation
									JOINT LeftHand
									{
										OFFSET 0.000000 -0.000002 15.639099
										CHANNELS 3 Xrotation Yrotation Zrotation
										End Site
										{
											OFFSET 0.000000 -0.000000 0.100006
										}
									}
								}
							}
						}
					}
				}
			}
		}
	}
	JOINT RightUpLeg
	{
		OFFSET -6.914162 1.063580 -1.267879
		CHANNELS 3 Xrotation Yrotation Zrotation
		JOINT RightUpLegRoll
		{
			OFFSET 0.000000 -0.000003 18.337799
			CHANNELS 3 Xrotation Yrotation Zrotation
			JOINT RightLeg
			{
				OFFSET 0.000000 0.000004 -22.708500
				CHANNELS 3 Xrotation Yrotation Zrotation
				JOINT RightLegRoll
				{
					OFFSET 0.000000 -0.000004 22.782803
					CHANNELS 3 Xrotation Yrotation Zrotation
					JOINT RightFoot
					{
						OFFSET 0.000000 -0.000003 18.962898
						CHANNELS 3 Xrotation Yrotation Zrotation
						JOINT RightToeBase
						{
							OFFSET 0.000000 -0.000003 15.851997
							CHANNELS 3 Xrotation Yrotation Zrotation
							End Site
							{
								OFFSET 0.006718 0.884891 7.677010
							}
						}
					}
				}
			}
		}
	}
	JOINT LeftUpLeg
	{
		OFFSET 6.914162 1.063580 -1.267879
		CHANNELS 3 Xrotation Yrotation Zrotation
		JOINT LeftUpLegRoll
		{
			OFFSET 0.000000 -0.000003 18.337898
			CHANNELS 3 Xrotation Yrotation Zrotation
			JOINT LeftLeg
			{
				OFFSET 0.000000 -0.000004 22.708405
				CHANNELS 3 Xrotation Yrotation Zrotation
				JOINT LeftLegRoll
				{
					OFFSET 0.000000 -0.000004 22.993401
					CHANNELS 3 Xrotation Yrotation Zrotation
					JOINT LeftFoot
					{
						OFFSET 0.000000 -0.000003 18.752205
						CHANNELS 3 Xrotation Yrotation Zrotation
						JOINT LeftToeBase
						{
							OFFSET 0.000000 -0.000003 15.852005
							CHANNELS 3 Xrotation Yrotation Zrotation
							End Site
							{
								OFFSET -0.030113 0.884891 7.677017
							}
						}
					}
				}
			}
		}
	}
}
MOTION
Frames: 10
Frame Time: 0.041667
48.937698 -2.773440 52.530602 -4.687264 0.917056 22.886191 4.515897 -1.005699 -0.522710 13.027973 -2.060471 -0.953956 14.673507 -2.071783 -0.929236 -4.265486 0.798854 -2.870000 -9.739256 4.767156 -3.101615 -18.563320 -74.343167 -21.962219 -60.684011 -129.918613 -88.407127 0.000000 0.000006 0.000001 68.366389 -6.569394 2.031095 -0.000001 0.000006 -2.999991 -5.000351 -7.998808 0.000206 -3.228988 57.014437 3.620282 -45.245407 129.968487 69.917716 0.000001 -0.000009 -0.000002 64.543177 7.004071 0.463959 -0.000002 -0.000003 3.000000 -5.000198 7.999053 -0.000101 -84.228547 187.547883 2.844326 -179.999991 0.000003 -1.195005 74.773325 4.981542 3.099877 -0.000003 -0.000001 2.201479 80.291913 5.366358 6.581359 25.458371 -7.355619 0.002134 -86.631121 180.832195 -8.917622 -0.000005 -0.000003 -2.132228 -95.510094 -3.279661 -1.540869 -0.000002 0.000001 -2.698871 71.224680 -9.961544 6.459933 25.456953 7.355613 0.000001 
48.941097 -2.774700 52.524105 -4.836995 0.874164 22.908774 4.516975 -1.002907 -0.524308 13.030229 -2.055113 -0.956841 14.675759 -2.066452 -0.932186 -4.151294 0.723096 -2.878288 -9.710110 4.778346 -3.096336 -18.628193 -74.445066 -22.032845 -60.909482 -129.939964 -88.575327 -0.000001 0.000006 -0.000002 68.193852 -6.630104 2.076397 -0.000001 0.000008 -2.999990 -5.000350 -7.998815 0.000206 -3.213014 57.014652 3.601315 -45.339106 129.955455 70.031924 0.000001 -0.000009 -0.000002 64.421675 7.051555 0.436090 -0.000001 -0.000002 3.000000 -5.000194 7.999054 -0.000099 -84.074281 187.576611 2.865424 -179.999991 0.000005 -1.196002 74.770593 4.983512 3.101662 -0.000003 0.000000 2.202460 80.291053 5.367286 6.578774 25.458371 -7.355620 0.002133 -86.481308 180.818986 -8.931517 -0.000005 -0.000003 -2.136531 -95.503906 -3.279896 -1.539707 -0.000002 0.000002 -2.700282 71.223430 -9.974986 6.496481 25.456950 7.355610 0.000001 
48.957996 -2.770490 52.520405 -4.987386 0.832054 22.931009 4.518524 -1.000253 -0.526136 13.033491 -2.049903 -0.959972 14.678918 -2.061285 -0.935376 -4.042060 0.648281 -2.887150 -9.682480 4.788765 -3.091985 -18.693055 -74.546399 -22.103378 -61.133909 -129.967107 -88.744798 -0.000000 0.000006 -0.000002 68.018760 -6.692872 2.122347 -0.000001 0.000002 -2.999991 -5.000352 -7.998815 0.000203 -3.199540 57.014096 3.585256 -45.428671 129.942710 70.140408 0.000001 -0.000008 -0.000003 64.304940 7.097747 0.409129 -0.000001 -0.000002 3.000000 -5.000197 7.999052 -0.000101 -83.919338 187.604273 2.887681 -179.999991 0.000004 -1.197997 74.768346 4.985054 3.103568 -0.000001 -0.000001 2.203721 80.290076 5.368634 6.574438 25.458367 -7.355619 0.002134 -86.331173 180.805202 -8.943705 -0.000005 -0.000002 -2.140750 -95.496085 -3.279923 -1.538475 -0.000002 0.000002 -2.701601 71.220698 -9.988439 6.532595 25.456957 7.355613 0.000001 
48.957294 -2.754331 52.526302 -5.137928 0.789798 22.952817 4.520497 -0.997568 -0.528138 13.037645 -2.044480 -0.963188 14.683063 -2.055907 -0.938656 -3.938808 0.575290 -2.896836 -9.654974 4.797241 -3.088949 -18.757525 -74.646680 -22.173366 -61.358041 -129.997925 -88.915730 -0.000000 0.000006 -0.000001 67.842746 -6.756916 2.168286 -0.000001 0.000007 -2.999990 -5.000352 -7.998808 0.000206 -3.187039 57.014417 3.570426 -45.517330 129.928421 70.247485 0.000001 -0.000008 -0.000002 64.194230 7.142789 0.383108 0.000000 -0.000001 3.000001 -5.000195 7.999049 -0.000100 -83.764470 187.631102 2.909473 -179.999991 0.000005 -1.198994 74.766570 4.986440 3.105834 -0.000002 -0.000001 2.205408 80.288621 5.370562 6.567871 25.458369 -7.355619 0.002134 -86.180527 180.791105 -8.954988 -0.000005 -0.000003 -2.144900 -95.486666 -3.279495 -1.537185 -0.000003 0.000003 -2.702800 71.216525 -10.001946 6.568370 25.456955 7.355614 0.000000 
48.944897 -2.742370 52.532700 -5.288544 0.747500 22.974393 4.522842 -0.994851 -0.530294 13.042603 -2.038886 -0.966499 14.688014 -2.050345 -0.942032 -3.840860 0.503670 -2.907276 -9.627691 4.804184 -3.087065 -18.821821 -74.746182 -22.243119 -61.581894 -130.032486 -89.088042 -0.000000 0.000006 0.000001 67.665721 -6.822196 2.214302 -0.000003 0.000007 -2.999991 -5.000352 -7.998809 0.000205 -3.175434 57.015209 3.556713 -45.605262 129.912766 70.353503 0.000001 -0.000009 -0.000002 64.088983 7.186775 0.357879 -0.000000 -0.000003 2.999999 -5.000195 7.999052 -0.000101 -83.609575 187.657289 2.930898 -179.999991 0.000004 -1.201002 74.765252 4.987587 3.108442 -0.000005 -0.000001 2.207440 80.286784 5.373050 6.559269 25.458372 -7.355620 0.002134 -86.029443 180.776898 -8.965673 -0.000005 0.000000 -2.148989 -95.475799 -3.278743 -1.534830 -0.000002 0.000002 -2.703914 71.211129 -10.015499 6.603924 25.456955 7.355614 0.000001 
48.958595 -2.737222 52.531300 -5.439172 0.705269 22.995553 4.525500 -0.992107 -0.532571 13.048159 -2.033141 -0.969901 14.693668 -2.044642 -0.945500 -3.747558 0.432968 -2.918421 -9.600748 4.810030 -3.086148 -18.886457 -74.845295 -22.313147 -61.805337 -130.070707 -89.261195 -0.000001 0.000006 0.000002 67.487453 -6.888692 2.260279 -0.000002 0.000008 -2.999989 -5.000352 -7.998812 0.000205 -3.164651 57.016380 3.544016 -45.692644 129.895759 70.458702 0.000001 -0.000008 -0.000002 63.988272 7.229844 0.333322 0.000001 -0.000003 2.999999 -5.000195 7.999051 -0.000100 -83.454687 187.682916 2.952069 -179.999991 0.000004 -1.202996 74.764296 4.988530 3.111212 -0.000004 -0.000001 2.209720 80.284878 5.375841 6.549497 25.458367 -7.355619 0.002134 -85.878099 180.762527 -8.974863 -0.000005 -0.000002 -2.153019 -95.463771 -3.277778 -1.532445 -0.000003 0.000002 -2.704933 71.204804 -10.029003 6.639107 25.456955 7.355617 0.000003 
48.966198 -2.743879 52.528999 -5.589764 0.663196 23.016605 4.528416 -0.989347 -0.534967 13.054415 -2.027284 -0.973385 14.699817 -2.038830 -0.949051 -3.658233 0.362731 -2.930187 -9.574255 4.815188 -3.086016 -18.951719 -74.944305 -22.383771 -62.028206 -130.112522 -89.434668 -0.000001 0.000006 -0.000000 67.307744 -6.956418 2.306494 -0.000004 0.000006 -2.999990 -5.000350 -7.998813 0.000204 -3.154587 57.017630 3.532201 -45.778848 129.878233 70.562049 0.000000 -0.000009 -0.000002 63.891277 7.272014 0.309391 -0.000000 -0.000002 3.000001 -5.000197 7.999052 -0.000100 -83.299464 187.707955 2.974701 -179.999991 0.000005 -1.205004 74.763483 4.989305 3.114154 -0.000003 0.000000 2.212159 80.282993 5.378867 6.538742 25.458366 -7.355619 0.002133 -85.726654 180.748157 -8.984281 -0.000004 -0.000002 -2.157010 -95.450787 -3.276480 -1.530018 -0.000003 0.000001 -2.705893 71.197687 -10.042524 6.673906 25.456955 7.355613 0.000000 
48.970295 -2.732218 52.532104 -5.740258 0.621389 23.037666 4.531556 -0.986583 -0.537447 13.060969 -2.021355 -0.976956 14.706461 -2.032934 -0.952684 -3.572227 0.292509 -2.942509 -9.548332 4.820091 -3.086482 -19.017984 -75.043514 -22.455418 -62.252550 -130.156959 -89.611051 -0.000000 0.000006 -0.000000 67.126464 -7.025353 2.352937 -0.000003 0.000005 -2.999991 -5.000350 -7.998811 0.000206 -3.145203 57.018867 3.521171 -45.863535 129.861130 70.663109 0.000001 -0.000009 -0.000002 63.797129 7.313506 0.285990 0.000001 -0.000002 3.000002 -5.000195 7.999052 -0.000101 -83.144309 187.732831 2.995983 -179.999991 0.000004 -1.206002 74.762834 4.989884 3.117157 -0.000003 -0.000000 2.214660 80.281374 5.381962 6.527681 25.458371 -7.355619 0.002134 -85.575392 180.733800 -8.992460 -0.000005 -0.000001 -2.160950 -95.437257 -3.275077 -1.528562 -0.000002 0.000001 -2.706794 71.189969 -10.055980 6.708467 25.456957 7.355613 0.000001 
48.977295 -2.726668 52.521999 -5.890581 0.579945 23.058635 4.534830 -0.983820 -0.539989 13.067925 -2.015365 -0.980597 14.713317 -2.026988 -0.956399 -3.488879 0.221847 -2.955307 -9.523093 4.825162 -3.087376 -19.085830 -75.143358 -22.528710 -62.477202 -130.204456 -89.788376 -0.000001 0.000006 -0.000002 66.943347 -7.095578 2.399858 -0.000005 0.000010 -2.999990 -5.000354 -7.998813 0.000204 -3.136408 57.019888 3.510822 -45.946563 129.844382 70.761894 0.000001 -0.000008 -0.000002 63.704997 7.354381 0.262883 0.000000 -0.000002 3.000000 -5.000192 7.999051 -0.000101 -82.988718 187.757351 3.019058 -179.999991 0.000003 -1.207996 74.762131 4.990341 3.119849 -0.000004 -0.000001 2.217131 80.280165 5.384977 6.516999 25.458371 -7.355618 0.002133 -85.424281 180.719511 -8.999688 -0.000005 -0.000001 -2.164860 -95.423364 -3.273712 -1.526109 -0.000003 0.000003 -2.707638 71.181971 -10.069339 6.742613 25.456950 7.355617 -0.000000 
48.980701 -2.723592 52.522202 -6.040676 0.538960 23.079732 4.538217 -0.981067 -0.542570 13.074982 -2.009366 -0.984328 14.720466 -2.021032 -0.960196 -3.407511 0.150295 -2.968491 -9.498642 4.830821 -3.088505 -19.155689 -75.244157 -22.604064 -62.704101 -130.253961 -89.969171 -0.000000 0.000006 -0.000001 66.758173 -7.167088 2.447237 -0.000004 0.000008 -2.999990 -5.000351 -7.998808 0.000208 -3.128127 57.020297 3.501022 -46.029400 129.827607 70.859852 0.000001 -0.000008 -0.000002 63.614101 7.394755 0.240044 -0.000003 -0.000000 3.000001 -5.000195 7.999053 -0.000101 -82.833187 187.781913 3.040780 -179.999991 0.000003 -1.210004 74.761290 4.990670 3.122434 -0.000003 -0.000000 2.219469 80.279550 5.387810 6.506864 25.458372 -7.355618 0.002134 -85.273717 180.705454 -9.007043 -0.000005 -0.000002 -2.168741 -95.409342 -3.272348 -1.523634 -0.000003 0.000002 -2.708469 71.173829 -10.082630 6.776456 25.456957 7.355611 0.000001 
